<?xml version="1.0" standalone="no"?>
<!DOCTYPE svg PUBLIC "-//W3C//DTD SVG 20010904//EN"
 "http://www.w3.org/TR/2001/REC-SVG-20010904/DTD/svg10.dtd">
<svg version="1.0" xmlns="http://www.w3.org/2000/svg"
 width="512.000000pt" height="512.000000pt" viewBox="0 0 512.000000 512.000000"
 preserveAspectRatio="xMidYMid meet">
<metadata>
Created by potrace 1.11, written by Peter Selinger 2001-2013
</metadata>
<g transform="translate(0.000000,512.000000) scale(0.100000,-0.100000)"
fill="#000000" stroke="none">
<path d="M1824 5102 c-17 -9 -47 -29 -65 -44 -19 -15 -72 -57 -119 -93 -119
-92 -151 -156 -117 -238 15 -35 457 -471 502 -494 31 -17 90 -19 125 -5 14 5
58 36 97 67 81 65 110 117 100 181 -7 40 -302 552 -345 597 -44 46 -123 59
-178 29z"/>
<path d="M3524 4724 c-274 -40 -538 -202 -687 -422 -33 -50 -46 -61 -62 -56
-11 3 -47 8 -80 11 -186 17 -370 -113 -419 -297 -17 -66 -14 -178 7 -236 35
-96 113 -184 203 -230 41 -20 53 -32 48 -43 -19 -48 -41 -219 -39 -303 5 -147
21 -231 71 -354 58 -144 116 -234 218 -339 239 -243 555 -347 899 -294 43 6
85 18 93 26 22 22 36 52 29 63 -4 6 11 17 32 26 21 8 61 26 88 39 46 21 52 21
68 7 31 -27 72 -19 134 28 159 119 291 301 353 486 l23 70 91 1 c69 0 104 5
146 21 221 87 323 339 222 552 -37 80 -132 170 -210 199 l-62 23 0 52 c0 147
-71 377 -154 499 -14 21 -26 41 -26 44 0 7 -81 102 -123 145 -218 217 -554
327 -863 282z"/>
<path d="M1154 4654 c-47 -25 -60 -41 -150 -185 -91 -147 -105 -189 -85 -251
6 -19 24 -46 39 -60 34 -33 580 -278 633 -285 67 -9 115 20 170 104 77 118 86
178 38 247 -22 31 -443 384 -501 420 -39 25 -107 29 -144 10z"/>
<path d="M990 3885 c-58 -25 -79 -69 -116 -243 -36 -165 -37 -212 -8 -261 34
-58 79 -72 284 -86 105 -8 172 -13 265 -20 164 -12 188 -13 221 -3 61 16 103
75 119 168 17 98 17 131 0 169 -22 51 -52 71 -155 109 -530 192 -544 196 -610
167z"/>
<path d="M1785 3149 c-138 -32 -336 -93 -350 -109 -9 -10 -17 -30 -19 -46 -2
-15 -9 -28 -17 -30 -8 -1 -47 -11 -86 -22 -71 -20 -73 -20 -86 -2 -32 46 -73
42 -261 -21 -107 -36 -197 -135 -212 -236 -3 -24 -9 -43 -13 -43 -3 -1 -31 -2
-61 -4 -87 -6 -218 -44 -274 -80 -65 -42 -101 -84 -139 -164 -24 -51 -30 -77
-30 -135 -1 -69 8 -109 74 -337 52 -179 89 -315 89 -325 0 -5 -20 -18 -45 -29
-54 -22 -137 -94 -172 -149 -78 -124 -85 -292 -16 -418 39 -73 105 -134 190
-176 73 -36 81 -38 174 -37 l96 0 23 -70 c115 -361 442 -640 822 -701 252 -40
528 18 737 156 372 245 548 687 446 1122 -8 34 -13 61 -12 62 17 3 119 62 139
79 113 100 166 259 132 401 -46 201 -214 327 -426 322 l-73 -2 -106 380 c-58
209 -113 396 -123 416 -37 79 -122 154 -207 184 -53 19 -143 25 -194 14z"/>
<path d="M3805 2072 c-33 -7 -167 -36 -298 -63 -131 -27 -246 -53 -256 -59
-30 -16 -81 -79 -82 -103 -5 -68 4 -193 16 -220 16 -38 61 -82 95 -93 29 -9
33 -9 205 -19 72 -4 144 -8 160 -11 17 -2 95 -6 175 -10 141 -6 146 -5 179 17
64 44 76 71 75 162 -1 94 -12 250 -21 287 -11 47 -32 78 -69 101 -44 27 -98
30 -179 11z"/>
<path d="M3355 1353 c-52 -27 -74 -54 -94 -117 -41 -130 -43 -164 -11 -227 21
-41 50 -57 285 -159 66 -29 144 -63 173 -76 189 -86 228 -94 287 -60 21 11 47
32 57 46 21 29 108 328 108 373 0 43 -43 112 -82 130 -35 16 -65 23 -138 32
-25 3 -56 8 -70 10 -14 2 -43 7 -65 10 -22 3 -51 7 -65 10 -14 2 -47 7 -75 10
-27 3 -77 10 -110 16 -101 18 -167 19 -200 2z"/>
<path d="M3032 872 c-33 -11 -55 -29 -90 -74 -91 -116 -106 -172 -68 -246 8
-15 92 -102 186 -192 95 -91 198 -189 229 -219 61 -59 103 -81 152 -81 62 0
98 29 184 144 128 173 137 188 137 240 0 87 -31 117 -217 216 -55 30 -114 62
-132 71 -133 74 -283 148 -308 152 -16 2 -50 -3 -73 -11z"/>
</g>
</svg>
